<svg width="40" height="37" viewBox="0 0 40 37" fill="none" xmlns="http://www.w3.org/2000/svg">
<path d="M14.9271 7.01135C12.3827 5.61895 11.1092 4.92294 10.0579 5.0132C9.14095 5.09193 8.30467 5.52649 7.7557 6.2083C7.12653 6.98971 7.11144 8.35293 7.08126 11.0792L6.92019 25.6327C6.89001 28.359 6.87493 29.722 7.48665 30.5171C8.0204 31.2109 8.84685 31.6641 9.76184 31.7631C10.8109 31.8766 12.0994 31.2092 14.674 29.8734L28.4037 22.7503C30.9783 21.4146 32.2654 20.7464 32.7048 19.8607C33.088 19.0882 33.0978 18.2008 32.7318 17.42C32.3123 16.5252 31.0403 15.8291 28.498 14.4378L14.9271 7.01135Z" fill="#004D09" stroke="#004D09" stroke-width="2" stroke-linecap="round" stroke-linejoin="round"/>
</svg>
